<?xml version="1.0" encoding="utf-8"?>
<!-- Generator: Adobe Illustrator 26.0.1, SVG Export Plug-In . SVG Version: 6.00 Build 0)  -->
<svg version="1.1" id="Layer_1" xmlns="http://www.w3.org/2000/svg" xmlns:xlink="http://www.w3.org/1999/xlink" x="0px" y="0px"
	 viewBox="0 0 20 20" style="enable-background:new 0 0 20 20;" xml:space="preserve">
<style type="text/css">
	.st0{fill:#FFFFFF;}
</style>
<g>
	<path class="st0" d="M16.9,2.5H3.1c-0.3,0-0.6,0.1-0.9,0.4C2,3.1,1.9,3.4,1.9,3.8v12.5c0,0.2,0.1,0.5,0.2,0.7
		c0.1,0.2,0.3,0.4,0.5,0.5c0.2,0.1,0.3,0.1,0.5,0.1c0.3,0,0.6-0.1,0.8-0.3l0,0L6.5,15h10.4c0.3,0,0.6-0.1,0.9-0.4s0.4-0.6,0.4-0.9
		v-10c0-0.3-0.1-0.6-0.4-0.9C17.5,2.6,17.2,2.5,16.9,2.5z M16.9,13.8H6.3c-0.2,0-0.3,0.1-0.4,0.2l-2.7,2.3V3.8h13.7V13.8z M6.9,7.5
		c0-0.2,0.1-0.3,0.2-0.4c0.1-0.1,0.3-0.2,0.4-0.2h5c0.2,0,0.3,0.1,0.4,0.2c0.1,0.1,0.2,0.3,0.2,0.4s-0.1,0.3-0.2,0.4
		c-0.1,0.1-0.3,0.2-0.4,0.2h-5c-0.2,0-0.3-0.1-0.4-0.2C6.9,7.8,6.9,7.7,6.9,7.5z M6.9,10c0-0.2,0.1-0.3,0.2-0.4
		c0.1-0.1,0.3-0.2,0.4-0.2h5c0.2,0,0.3,0.1,0.4,0.2c0.1,0.1,0.2,0.3,0.2,0.4s-0.1,0.3-0.2,0.4c-0.1,0.1-0.3,0.2-0.4,0.2h-5
		c-0.2,0-0.3-0.1-0.4-0.2C6.9,10.3,6.9,10.2,6.9,10z"/>
</g>
</svg>
