<svg width="20" height="20" viewBox="0 0 20 20" fill="none" xmlns="http://www.w3.org/2000/svg">
<path d="M16.875 3.75H3.12502C2.7935 3.75 2.47556 3.8817 2.24114 4.11612C2.00672 4.35054 1.87502 4.66848 1.87502 5V17.5C1.87358 17.7384 1.94101 17.9721 2.06921 18.173C2.19741 18.374 2.38092 18.5336 2.59768 18.6328C2.76286 18.7097 2.94281 18.7497 3.12502 18.75C3.41846 18.7493 3.70217 18.6447 3.9258 18.4547L3.93284 18.4492L6.4844 16.25H16.875C17.2065 16.25 17.5245 16.1183 17.7589 15.8839C17.9933 15.6495 18.125 15.3315 18.125 15V5C18.125 4.66848 17.9933 4.35054 17.7589 4.11612C17.5245 3.8817 17.2065 3.75 16.875 3.75ZM12.5 11.875H7.50002C7.33426 11.875 7.17529 11.8092 7.05808 11.6919C6.94087 11.5747 6.87502 11.4158 6.87502 11.25C6.87502 11.0842 6.94087 10.9253 7.05808 10.8081C7.17529 10.6908 7.33426 10.625 7.50002 10.625H12.5C12.6658 10.625 12.8248 10.6908 12.942 10.8081C13.0592 10.9253 13.125 11.0842 13.125 11.25C13.125 11.4158 13.0592 11.5747 12.942 11.6919C12.8248 11.8092 12.6658 11.875 12.5 11.875ZM12.5 9.375H7.50002C7.33426 9.375 7.17529 9.30915 7.05808 9.19194C6.94087 9.07473 6.87502 8.91576 6.87502 8.75C6.87502 8.58424 6.94087 8.42527 7.05808 8.30806C7.17529 8.19085 7.33426 8.125 7.50002 8.125H12.5C12.6658 8.125 12.8248 8.19085 12.942 8.30806C13.0592 8.42527 13.125 8.58424 13.125 8.75C13.125 8.91576 13.0592 9.07473 12.942 9.19194C12.8248 9.30915 12.6658 9.375 12.5 9.375Z" fill="white"/>
</svg>
