<?xml version="1.0" encoding="utf-8"?>
<!-- Generator: Adobe Illustrator 26.0.1, SVG Export Plug-In . SVG Version: 6.00 Build 0)  -->
<svg version="1.1" id="Layer_1" xmlns="http://www.w3.org/2000/svg" xmlns:xlink="http://www.w3.org/1999/xlink" x="0px" y="0px"
	 viewBox="0 0 16.4 16" style="enable-background:new 0 0 16.4 16;" xml:space="preserve">
<style type="text/css">
	.st0{fill:#FFFFFF;}
</style>
<g>
	<path class="st0" d="M15.1,0.5H1.4c-0.3,0-0.6,0.1-0.9,0.4C0.3,1.1,0.1,1.4,0.1,1.7v12.5c0,0.2,0.1,0.5,0.2,0.7
		c0.1,0.2,0.3,0.4,0.5,0.5c0.2,0.1,0.3,0.1,0.5,0.1c0.3,0,0.6-0.1,0.8-0.3l0,0L4.7,13h10.4c0.3,0,0.6-0.1,0.9-0.4
		c0.2-0.2,0.4-0.6,0.4-0.9v-10c0-0.3-0.1-0.6-0.4-0.9C15.8,0.6,15.5,0.5,15.1,0.5z M15.1,11.7H4.5c-0.2,0-0.3,0.1-0.4,0.2l-2.7,2.3
		V1.7h13.7V11.7z M5.1,5.5c0-0.2,0.1-0.3,0.2-0.4c0.1-0.1,0.3-0.2,0.4-0.2h5c0.2,0,0.3,0.1,0.4,0.2c0.1,0.1,0.2,0.3,0.2,0.4
		s-0.1,0.3-0.2,0.4c-0.1,0.1-0.3,0.2-0.4,0.2h-5C5.6,6.1,5.4,6,5.3,5.9C5.2,5.8,5.1,5.6,5.1,5.5z M5.1,8c0-0.2,0.1-0.3,0.2-0.4
		c0.1-0.1,0.3-0.2,0.4-0.2h5c0.2,0,0.3,0.1,0.4,0.2c0.1,0.1,0.2,0.3,0.2,0.4c0,0.2-0.1,0.3-0.2,0.4c-0.1,0.1-0.3,0.2-0.4,0.2h-5
		c-0.2,0-0.3-0.1-0.4-0.2C5.2,8.3,5.1,8.1,5.1,8z"/>
</g>
</svg>
