<?xml version="1.0" encoding="utf-8"?>
<!-- Generator: Adobe Illustrator 26.0.1, SVG Export Plug-In . SVG Version: 6.00 Build 0)  -->
<svg version="1.1" id="Layer_1" xmlns="http://www.w3.org/2000/svg" xmlns:xlink="http://www.w3.org/1999/xlink" x="0px" y="0px"
	 viewBox="0 0 24 24" style="enable-background:new 0 0 24 24;" xml:space="preserve">
<style type="text/css">
	.st0{fill:#FFFFFF;}
</style>
<path class="st0" d="M14.6,12c0,0.5-0.2,1-0.4,1.5s-0.7,0.8-1.2,1c-0.5,0.2-1,0.3-1.5,0.1c-0.5-0.1-1-0.4-1.3-0.7
	c-0.4-0.4-0.6-0.8-0.7-1.3s0-1,0.1-1.5c0.2-0.5,0.5-0.9,1-1.2C11,9.5,11.5,9.4,12,9.4c0.7,0,1.4,0.3,1.9,0.8
	C14.3,10.6,14.6,11.3,14.6,12z M12,7.1c0.5,0,1-0.2,1.5-0.4c0.4-0.3,0.8-0.7,1-1.2c0.2-0.5,0.3-1,0.1-1.5c-0.1-0.5-0.4-1-0.7-1.3
	C13.5,2.3,13,2,12.5,1.9c-0.5-0.1-1,0-1.5,0.1c-0.5,0.2-0.9,0.5-1.2,1C9.5,3.5,9.4,4,9.4,4.5c0,0.7,0.3,1.4,0.8,1.9
	C10.6,6.8,11.3,7.1,12,7.1z M12,16.9c-0.5,0-1,0.2-1.5,0.4c-0.4,0.3-0.8,0.7-1,1.2c-0.2,0.5-0.3,1-0.1,1.5c0.1,0.5,0.4,1,0.7,1.3
	c0.4,0.4,0.8,0.6,1.3,0.7c0.5,0.1,1,0,1.5-0.1c0.5-0.2,0.9-0.5,1.2-1c0.3-0.4,0.4-0.9,0.4-1.5c0-0.7-0.3-1.4-0.8-1.9
	C13.4,17.2,12.7,16.9,12,16.9z"/>
</svg>
