<svg width="20" height="20" viewBox="0 0 20 20" fill="none" xmlns="http://www.w3.org/2000/svg">
<path d="M18.1868 7.50071L18.2033 7.54749L18.2643 7.74964L18.3154 7.93106L18.3372 8.01392L18.3729 8.16392C18.8362 10.2541 18.498 12.4421 17.4254 14.295C16.3552 16.1536 14.6252 17.5419 12.579 18.1843L12.4347 18.2271L12.2576 18.2729L12.0015 18.3336C11.911 18.3542 11.8173 18.3559 11.7262 18.3386C11.635 18.3214 11.5484 18.2856 11.4717 18.2333C11.395 18.1811 11.3299 18.1137 11.2805 18.0352C11.2311 17.9567 11.1983 17.8688 11.1843 17.7771C11.1556 17.5889 11.1986 17.3968 11.3049 17.2388C11.4111 17.0807 11.5728 16.9684 11.7579 16.9239L11.964 16.8721C12.0926 16.8383 12.2032 16.8058 12.2958 16.7746C13.9391 16.2198 15.3232 15.084 16.1883 13.5807C17.0584 12.0785 17.3495 10.3101 17.0068 8.60821L16.9822 8.49642L16.9493 8.36606L16.9083 8.21678L16.859 8.04892C16.8038 7.86581 16.8194 7.66865 16.9028 7.49652C16.9861 7.3244 17.1311 7.18988 17.309 7.11964C17.3916 7.08698 17.4799 7.07093 17.5688 7.07241C17.6577 7.07389 17.7454 7.09287 17.8269 7.12826C17.9084 7.16365 17.9822 7.21476 18.0439 7.27866C18.1057 7.34257 18.1543 7.41802 18.1868 7.50071ZM2.63756 7.11428C2.65303 7.11904 2.66827 7.12428 2.68327 7.12999C2.86076 7.19917 3.00578 7.3325 3.08959 7.50356C3.1734 7.67462 3.18988 7.87092 3.13577 8.05356C3.07149 8.26999 3.02506 8.45011 2.99649 8.59392C2.65532 10.2944 2.94679 12.061 3.81613 13.5618C4.68193 15.0665 6.06779 16.2029 7.71292 16.7571L7.8222 16.7918L7.88434 16.8096L8.02363 16.8475L8.27149 16.9086C8.45769 16.9523 8.62064 17.0645 8.72801 17.2228C8.83538 17.3811 8.87932 17.574 8.85113 17.7632C8.82467 17.9406 8.72884 18.1002 8.58472 18.207C8.44059 18.3137 8.25996 18.3589 8.08256 18.3325L8.03327 18.3236L7.82756 18.2754L7.64541 18.2289L7.48613 18.1843L7.4147 18.1629C5.37265 17.5187 3.64679 16.1315 2.57863 14.2757C1.50402 12.4196 1.16658 10.2273 1.63327 8.13392L1.66077 8.01964L1.69649 7.88571L1.76577 7.64821L1.79292 7.55892C1.81915 7.47424 1.86181 7.39555 1.91845 7.32735C1.9751 7.25916 2.04463 7.20279 2.12306 7.16146C2.2015 7.12014 2.2873 7.09467 2.37558 7.08652C2.46386 7.07836 2.55288 7.08803 2.63756 7.11428ZM10.0183 4.28571C13.1743 4.28571 15.7326 6.84392 15.7326 9.99999C15.7326 13.1561 13.1743 15.7143 10.0183 15.7143C6.8622 15.7143 4.30399 13.1561 4.30399 9.99999C4.30399 6.84392 6.86256 4.28571 10.0183 4.28571ZM10.0183 5.71428C7.65149 5.71428 5.73256 7.63321 5.73256 9.99999C5.73256 12.3668 7.65149 14.2857 10.0183 14.2857C12.3854 14.2857 14.304 12.3668 14.304 9.99999C14.304 7.63321 12.3854 5.71428 10.0183 5.71428ZM10.0183 1.42856C12.1631 1.42593 14.2305 2.22984 15.8101 3.68071L15.8954 3.76178L15.9936 3.85964L16.1043 3.97464L16.2279 4.10642C16.291 4.17445 16.3393 4.25474 16.3699 4.34228C16.4006 4.42982 16.4128 4.52273 16.406 4.61522C16.3991 4.70771 16.3732 4.7978 16.33 4.87985C16.2868 4.9619 16.2271 5.03417 16.1547 5.09214C16.006 5.21124 15.8181 5.27015 15.628 5.25718C15.438 5.24422 15.2597 5.16033 15.1286 5.02214C15.051 4.93999 14.979 4.86654 14.9126 4.80178L14.7876 4.68249L14.7304 4.63142C13.4283 3.48564 11.7527 2.8547 10.0183 2.85714C8.28224 2.85462 6.60514 3.48664 5.30256 4.63428L5.26184 4.67071L5.17149 4.75642L5.06899 4.85821L4.8922 5.04214C4.62077 5.33106 4.17292 5.36356 3.86256 5.11714C3.79296 5.06188 3.73492 4.99345 3.69178 4.91576C3.64863 4.83807 3.62122 4.75264 3.6111 4.66435C3.60099 4.57606 3.60837 4.48664 3.63282 4.4012C3.65728 4.31577 3.69833 4.23599 3.75363 4.16642L3.78577 4.12857L3.93042 3.97464L4.06184 3.83964C4.12423 3.77702 4.18184 3.72166 4.2347 3.67356C5.81321 2.2273 7.87703 1.42614 10.0179 1.42856" fill="white"/>
</svg>
