<svg width="20" height="20" viewBox="0 0 20 20" fill="none" xmlns="http://www.w3.org/2000/svg">
<path d="M9.9999 6.25003C9.25822 6.25003 8.5332 6.46996 7.91652 6.88202C7.29983 7.29407 6.81918 7.87974 6.53536 8.56496C6.25153 9.25019 6.17727 10.0042 6.32196 10.7316C6.46665 11.459 6.82381 12.1272 7.34825 12.6517C7.8727 13.1761 8.54089 13.5333 9.26832 13.678C9.99574 13.8227 10.7497 13.7484 11.435 13.4646C12.1202 13.1807 12.7059 12.7001 13.1179 12.0834C13.53 11.4667 13.7499 10.7417 13.7499 10C13.7489 9.00578 13.3535 8.05256 12.6504 7.34952C11.9474 6.64648 10.9941 6.25106 9.9999 6.25003ZM9.9999 12.5C9.50545 12.5 9.0221 12.3534 8.61098 12.0787C8.19986 11.804 7.87942 11.4135 7.69021 10.9567C7.50099 10.4999 7.45148 9.99725 7.54794 9.5123C7.6444 9.02735 7.88251 8.58189 8.23214 8.23226C8.58177 7.88263 9.02723 7.64453 9.51218 7.54806C9.99713 7.4516 10.4998 7.50111 10.9566 7.69033C11.4134 7.87955 11.8039 8.19998 12.0786 8.6111C12.3533 9.02222 12.4999 9.50557 12.4999 10C12.4999 10.6631 12.2365 11.299 11.7677 11.7678C11.2988 12.2366 10.6629 12.5 9.9999 12.5ZM18.589 8.37581C18.5716 8.2878 18.5354 8.20456 18.483 8.13177C18.4305 8.05897 18.363 7.99832 18.2851 7.95393L15.9546 6.62581L15.9452 3.99924C15.9449 3.90879 15.925 3.81947 15.8868 3.73746C15.8487 3.65545 15.7932 3.5827 15.7241 3.52424C14.8788 2.80916 13.9053 2.26117 12.8554 1.9094C12.7727 1.88142 12.6851 1.87106 12.5981 1.879C12.5112 1.88694 12.4269 1.913 12.3507 1.95549L9.9999 3.26956L7.64678 1.95315C7.57049 1.91041 7.48609 1.88416 7.39902 1.87608C7.31195 1.86801 7.22416 1.87829 7.14131 1.90628C6.09221 2.26062 5.11982 2.8107 4.27569 3.52737C4.20675 3.58574 4.15129 3.65836 4.11313 3.74023C4.07496 3.8221 4.05499 3.91126 4.05459 4.00159L4.04287 6.63049L1.7124 7.95862C1.63444 8.00301 1.56694 8.06366 1.5145 8.13646C1.46206 8.20925 1.42591 8.29248 1.4085 8.38049C1.19521 9.45228 1.19521 10.5556 1.4085 11.6274C1.42591 11.7154 1.46206 11.7986 1.5145 11.8714C1.56694 11.9442 1.63444 12.0049 1.7124 12.0492L4.04287 13.3774L4.05225 16.0039C4.05253 16.0944 4.07245 16.1837 4.11062 16.2657C4.14879 16.3477 4.20431 16.4205 4.27334 16.4789C5.11871 17.194 6.09221 17.742 7.14209 18.0938C7.22477 18.1218 7.31239 18.1321 7.39932 18.1242C7.48624 18.1162 7.57054 18.0902 7.64678 18.0477L9.9999 16.7305L12.353 18.0469C12.4462 18.0988 12.5511 18.1257 12.6577 18.125C12.726 18.125 12.7938 18.1139 12.8585 18.0922C13.9075 17.7383 14.8799 17.1888 15.7241 16.4727C15.7931 16.4143 15.8485 16.3417 15.8867 16.2598C15.9249 16.178 15.9448 16.0888 15.9452 15.9985L15.9569 13.3696L18.2874 12.0414C18.3654 11.997 18.4329 11.9364 18.4853 11.8636C18.5378 11.7908 18.5739 11.7076 18.5913 11.6196C18.8034 10.5486 18.8026 9.44643 18.589 8.37581ZM17.4171 11.1032L15.1851 12.3727C15.0873 12.4283 15.0063 12.5093 14.9507 12.6071C14.9054 12.6852 14.8577 12.768 14.8093 12.8461C14.7473 12.9446 14.7142 13.0586 14.714 13.175L14.7022 15.6946C14.1023 16.1657 13.4339 16.5424 12.7202 16.8117L10.4687 15.5571C10.3752 15.5053 10.27 15.4784 10.1632 15.4789H10.1483C10.0538 15.4789 9.9585 15.4789 9.86397 15.4789C9.75216 15.4761 9.64162 15.5031 9.54365 15.5571L7.29053 16.8149C6.5753 16.5476 5.90508 16.1727 5.30303 15.7032L5.29444 13.1875C5.29405 13.0709 5.26104 12.9567 5.19912 12.8578C5.15069 12.7797 5.10303 12.7016 5.0585 12.6188C5.00328 12.5195 4.92232 12.4369 4.82412 12.3797L2.58975 11.1071C2.47412 10.3757 2.47412 9.63064 2.58975 8.89925L4.81787 7.62737C4.91567 7.57176 4.99664 7.49079 5.05225 7.39299C5.09756 7.31487 5.14522 7.23206 5.19365 7.15393C5.25566 7.05541 5.28869 6.94143 5.28897 6.82503L5.30069 4.30549C5.90063 3.83436 6.56901 3.45762 7.28272 3.18831L9.53115 4.44299C9.62901 4.49724 9.73963 4.52422 9.85147 4.52112C9.946 4.52112 10.0413 4.52112 10.1358 4.52112C10.2476 4.52391 10.3582 4.49695 10.4562 4.44299L12.7093 3.18518C13.4245 3.45243 14.0947 3.82732 14.6968 4.2969L14.7054 6.81253C14.7058 6.92916 14.7388 7.04336 14.8007 7.14221C14.8491 7.22034 14.8968 7.29846 14.9413 7.38128C14.9965 7.48058 15.0775 7.56317 15.1757 7.62034L17.4101 8.89299C17.5272 9.62495 17.5285 10.3708 17.414 11.1032H17.4171Z" fill="white"/>
</svg>
