<svg width="20" height="20" viewBox="0 0 20 20" fill="none" xmlns="http://www.w3.org/2000/svg">
<path d="M12.4999 2.92667C13.5591 3.30282 14.5206 3.91148 15.3138 4.70793C16.1069 5.50439 16.7115 6.4684 17.0833 7.52917M9.1666 2.54584C7.90252 2.68693 6.69508 3.14718 5.65783 3.88333C4.62057 4.61947 3.78757 5.60732 3.23715 6.75399C2.68673 7.90066 2.43698 9.16847 2.51138 10.4382C2.58577 11.708 2.98187 12.938 3.66243 14.0125L2.49993 17.5L5.98743 16.3375C7.06198 17.0181 8.29195 17.4142 9.56171 17.4886C10.8315 17.563 12.0993 17.3132 13.2459 16.7628C14.3926 16.2124 15.3805 15.3794 16.1166 14.3421C16.8528 13.3049 17.313 12.0974 17.4541 10.8333" stroke="white" stroke-width="2" stroke-linecap="round" stroke-linejoin="round"/>
<path d="M9.99992 14.1667C8.89485 14.1667 7.83504 13.7277 7.05364 12.9463C6.27224 12.1649 5.83325 11.1051 5.83325 10M7.49992 6.66668C8.3023 6.06489 9.29483 5.77273 10.2953 5.84383C11.2957 5.91493 12.237 6.34452 12.9462 7.05374C13.6554 7.76295 14.085 8.70419 14.1561 9.70464C14.2272 10.7051 13.935 11.6976 13.3333 12.5" stroke="white" stroke-width="2" stroke-linecap="round" stroke-linejoin="round"/>
<path d="M9.99984 10.8333C10.4601 10.8333 10.8332 10.4602 10.8332 9.99999C10.8332 9.53975 10.4601 9.16666 9.99984 9.16666C9.5396 9.16666 9.1665 9.53975 9.1665 9.99999C9.1665 10.4602 9.5396 10.8333 9.99984 10.8333Z" stroke="white" stroke-width="2" stroke-linecap="round" stroke-linejoin="round"/>
</svg>
