<svg width="24" height="24" viewBox="0 0 24 24" fill="none" xmlns="http://www.w3.org/2000/svg">
<path d="M12 13C13.5531 13 14.9683 13.4834 16.0352 14.168L16.2432 14.3076C17.3307 15.0661 18 16.0309 18 16.8574C17.9999 17.2186 17.8715 17.5248 17.6357 17.7822L17.5273 17.8906C17.2238 18.1696 16.7848 18.3863 16.2432 18.5498H16.2422C15.1569 18.8786 13.6566 19 12 19C10.3434 19 8.84309 18.8786 7.75781 18.5498H7.75684C7.21545 18.3863 6.77567 18.1694 6.4707 17.8896H6.46973C6.16738 17.6118 6.00011 17.27 6 16.8584C6 16.0319 6.66934 15.0671 7.75684 14.3086C8.84411 13.5506 10.3434 13 12 13ZM3.77344 14.207C3.32067 14.9593 3.01151 15.8321 3.00098 16.8057C2.95905 16.7948 2.9175 16.7863 2.87793 16.7744C2.67584 16.7135 2.50081 16.6376 2.36133 16.5439L2.23438 16.4443L2.22656 16.4375L2.17578 16.3867C2.12784 16.3337 2.08785 16.2735 2.05859 16.208C2.01967 16.1208 2 16.0262 2 15.9307V15.9297C2.00017 15.5199 2.3294 15.0397 2.87207 14.6592C3.15207 14.4672 3.45606 14.3165 3.77344 14.207ZM20.2256 14.2061C20.5604 14.3204 20.8636 14.474 21.1201 14.6523V14.6533C21.6673 15.0355 21.9998 15.5167 22 15.9287C22 16.1337 21.9171 16.3044 21.7646 16.4443L21.7637 16.4453C21.6116 16.5849 21.3917 16.6931 21.1221 16.7744C21.0824 16.7864 21.0402 16.7947 20.998 16.8057C20.9875 15.8316 20.6787 14.9587 20.2256 14.2061ZM5.5 8C5.89782 8 6.27924 8.15815 6.56055 8.43945C6.84185 8.72076 7 9.10218 7 9.5L6.99219 9.64844C6.95805 9.99174 6.80663 10.3145 6.56055 10.5605C6.27924 10.8419 5.89782 11 5.5 11C5.10218 11 4.72076 10.8419 4.43945 10.5605C4.15815 10.2792 4 9.89782 4 9.5C4 9.10218 4.15815 8.72076 4.43945 8.43945C4.72076 8.15815 5.10218 8 5.5 8ZM18.5 8C18.8978 8 19.2792 8.15815 19.5605 8.43945C19.8419 8.72076 20 9.10218 20 9.5C20 9.89782 19.8419 10.2792 19.5605 10.5605C19.2792 10.8419 18.8978 11 18.5 11C18.1022 11 17.7208 10.8419 17.4395 10.5605C17.1581 10.2792 17 9.89782 17 9.5L17.0078 9.35156C17.042 9.00826 17.1934 8.68554 17.4395 8.43945C17.7208 8.15815 18.1022 8 18.5 8ZM12 4C12.7956 4 13.5585 4.3163 14.1211 4.87891C14.6837 5.44152 15 6.20435 15 7L14.9854 7.29688C14.9171 7.98351 14.6133 8.6289 14.1211 9.12109C13.5585 9.6837 12.7956 10 12 10L11.7031 9.98535C11.0165 9.91709 10.3711 9.61329 9.87891 9.12109C9.3163 8.55848 9 7.79565 9 7L9.01465 6.70312C9.08291 6.01649 9.38671 5.3711 9.87891 4.87891C10.4415 4.3163 11.2044 4 12 4Z" stroke="white" stroke-width="2"/>
</svg>
