<svg width="20" height="16" viewBox="0 0 20 16" fill="none" xmlns="http://www.w3.org/2000/svg">
<path d="M18 2.25H10.0003L7.39969 0.3C7.13967 0.105989 6.82411 0.000804693 6.49969 0H1.5C1.10218 0 0.720644 0.158035 0.43934 0.43934C0.158035 0.720644 0 1.10218 0 1.5V14.25C0 14.6478 0.158035 15.0294 0.43934 15.3107C0.720644 15.592 1.10218 15.75 1.5 15.75H18.0834C18.459 15.7495 18.819 15.6001 19.0846 15.3346C19.3501 15.069 19.4995 14.709 19.5 14.3334V3.75C19.5 3.35218 19.342 2.97064 19.0607 2.68934C18.7794 2.40804 18.3978 2.25 18 2.25ZM18 14.25H1.5V1.5H6.49969L9.3 3.6C9.42982 3.69737 9.58772 3.75 9.75 3.75H18V14.25ZM12.75 9C12.75 9.19891 12.671 9.38968 12.5303 9.53033C12.3897 9.67098 12.1989 9.75 12 9.75H10.5V11.25C10.5 11.4489 10.421 11.6397 10.2803 11.7803C10.1397 11.921 9.94891 12 9.75 12C9.55109 12 9.36032 11.921 9.21967 11.7803C9.07902 11.6397 9 11.4489 9 11.25V9.75H7.5C7.30109 9.75 7.11032 9.67098 6.96967 9.53033C6.82902 9.38968 6.75 9.19891 6.75 9C6.75 8.80109 6.82902 8.61032 6.96967 8.46967C7.11032 8.32902 7.30109 8.25 7.5 8.25H9V6.75C9 6.55109 9.07902 6.36032 9.21967 6.21967C9.36032 6.07902 9.55109 6 9.75 6C9.94891 6 10.1397 6.07902 10.2803 6.21967C10.421 6.36032 10.5 6.55109 10.5 6.75V8.25H12C12.1989 8.25 12.3897 8.32902 12.5303 8.46967C12.671 8.61032 12.75 8.80109 12.75 9Z" fill="black"/>
</svg>
